{
  "accessors": [
    {
      "bufferView": 2,
      "componentType": 5126,
      "count": 15132,
      "max": [
        126.80374908447266,
        357.24932861328125,
        128.60101318359375
      ],
      "min": [
        -123.1962661743164,
        -162.75067138671875,
        -51.39899444580078
      ],
      "type": "VEC3"
    },
    {
      "bufferView": 2,
      "byteOffset": 181584,
      "componentType": 5126,
      "count": 15132,
      "max": [
        1.0,
        1.0,
        1.0
      ],
      "min": [
        -1.0,
        -1.0,
        -1.0
      ],
      "type": "VEC3"
    },
    {
      "bufferView": 3,
      "componentType": 5126,
      "count": 15132,
      "max": [
        1.0,
        1.0,
        1.0,
        1.0
      ],
      "min": [
        -1.0,
        -1.0,
        -1.0,
        -1.0
      ],
      "type": "VEC4"
    },
    {
      "bufferView": 1,
      "componentType": 5126,
      "count": 15132,
      "max": [
        0.9971429705619812,
        1.9549709558486938
      ],
      "min": [
        0.0019529999699443579,
        0.0019529999699443579
      ],
      "type": "VEC2"
    },
    {
      "bufferView": 0,
      "componentType": 5125,
      "count": 39294,
      "type": "SCALAR"
    },
    {
      "bufferView": 2,
      "byteOffset": 363168,
      "componentType": 5126,
      "count": 24,
      "max": [
        92.35094451904297,
        230.36215209960938,
        50.34151840209961
      ],
      "min": [
        -88.74343872070313,
        -100.82203674316406,
        -2.1013050079345703
      ],
      "type": "VEC3"
    },
    {
      "bufferView": 1,
      "byteOffset": 121056,
      "componentType": 5126,
      "count": 24,
      "max": [
        0.0,
        0.0
      ],
      "min": [
        0.0,
        0.0
      ],
      "type": "VEC2"
    },
    {
      "bufferView": 0,
      "byteOffset": 157176,
      "componentType": 5125,
      "count": 36,
      "type": "SCALAR"
    },
    {
      "bufferView": 2,
      "byteOffset": 363456,
      "componentType": 5126,
      "count": 21076,
      "max": [
        94.45828247070313,
        340.90277099609375,
        58.03688430786133
      ],
      "min": [
        -90.85076904296875,
        -103.00993347167969,
        -1.07334303855896
      ],
      "type": "VEC3"
    },
    {
      "bufferView": 2,
      "byteOffset": 616368,
      "componentType": 5126,
      "count": 21076,
      "max": [
        1.0,
        1.0,
        1.0
      ],
      "min": [
        -1.0,
        -1.0,
        -1.0
      ],
      "type": "VEC3"
    },
    {
      "bufferView": 3,
      "byteOffset": 242112,
      "componentType": 5126,
      "count": 21076,
      "max": [
        1.0,
        1.0,
        1.0,
        1.0
      ],
      "min": [
        -1.0,
        -1.0,
        -1.0,
        -1.0
      ],
      "type": "VEC4"
    },
    {
      "bufferView": 1,
      "byteOffset": 121248,
      "componentType": 5126,
      "count": 21076,
      "max": [
        0.6212069988250732,
        0.6914079785346985
      ],
      "min": [
        0.10731899738311768,
        0.37633100152015686
      ],
      "type": "VEC2"
    },
    {
      "bufferView": 0,
      "byteOffset": 157320,
      "componentType": 5125,
      "count": 39624,
      "type": "SCALAR"
    },
    {
      "bufferView": 2,
      "byteOffset": 869280,
      "componentType": 5126,
      "count": 43401,
      "max": [
        96.2439193725586,
        343.42315673828125,
        58.19148254394531
      ],
      "min": [
        -92.63641357421875,
        -104.86383056640625,
        -2.101315975189209
      ],
      "type": "VEC3"
    },
    {
      "bufferView": 2,
      "byteOffset": 1390092,
      "componentType": 5126,
      "count": 43401,
      "max": [
        1.0,
        1.0,
        1.0
      ],
      "min": [
        -1.0,
        -1.0,
        -1.0
      ],
      "type": "VEC3"
    },
    {
      "bufferView": 3,
      "byteOffset": 579328,
      "componentType": 5126,
      "count": 43401,
      "max": [
        1.0,
        1.0,
        1.0,
        1.0
      ],
      "min": [
        -1.0,
        -1.0,
        -1.0,
        -1.0
      ],
      "type": "VEC4"
    },
    {
      "bufferView": 1,
      "byteOffset": 289856,
      "componentType": 5126,
      "count": 43401,
      "max": [
        0.8969799876213074,
        0.6005749702453613
      ],
      "min": [
        0.0019529999699443579,
        0.02913600020110607
      ],
      "type": "VEC2"
    },
    {
      "bufferView": 0,
      "byteOffset": 315816,
      "componentType": 5125,
      "count": 144054,
      "type": "SCALAR"
    },
    {
      "bufferView": 2,
      "byteOffset": 1910904,
      "componentType": 5126,
      "count": 24,
      "max": [
        16.770761489868164,
        129.0787353515625,
        24.972980499267578
      ],
      "min": [
        -11.380857467651367,
        128.65646362304688,
        -17.25444793701172
      ],
      "type": "VEC3"
    },
    {
      "bufferView": 2,
      "byteOffset": 1911192,
      "componentType": 5126,
      "count": 24,
      "max": [
        1.0,
        1.0,
        1.0
      ],
      "min": [
        -1.0,
        -1.0,
        -1.0
      ],
      "type": "VEC3"
    },
    {
      "bufferView": 1,
      "byteOffset": 637064,
      "componentType": 5126,
      "count": 24,
      "max": [
        1.0,
        1.0
      ],
      "min": [
        0.0,
        0.0
      ],
      "type": "VEC2"
    },
    {
      "bufferView": 0,
      "byteOffset": 892032,
      "componentType": 5125,
      "count": 36,
      "type": "SCALAR"
    }
  ],
  "asset": {
    "extras": {
      "author": "3D Sci-Fi (https://sketchfab.com/3D_Sci-Fi)",
      "license": "CC-BY-4.0 (http://creativecommons.org/licenses/by/4.0/)",
      "source": "https://sketchfab.com/3d-models/stargate-bc-303-b5b003619f1e4d018e44036286ab1168",
      "title": "Stargate | BC-303"
    },
    "generator": "Sketchfab-16.53.0",
    "version": "2.0"
  },
  "bufferViews": [
    {
      "buffer": 0,
      "byteLength": 892176,
      "name": "floatBufferViews",
      "target": 34963
    },
    {
      "buffer": 0,
      "byteLength": 637256,
      "byteOffset": 892176,
      "byteStride": 8,
      "name": "floatBufferViews",
      "target": 34962
    },
    {
      "buffer": 0,
      "byteLength": 1911480,
      "byteOffset": 1529432,
      "byteStride": 12,
      "name": "floatBufferViews",
      "target": 34962
    },
    {
      "buffer": 0,
      "byteLength": 1273744,
      "byteOffset": 3440912,
      "byteStride": 16,
      "name": "floatBufferViews",
      "target": 34962
    }
  ],
  "buffers": [
    {
      "byteLength": 4714656,
      "uri": "scene.bin"
    }
  ],
  "extensionsUsed": [
    "KHR_materials_specular"
  ],
  "images": [
    {
      "uri": "textures/BC-303_baseColor.png"
    },
    {
      "uri": "textures/BC-303_metallicRoughness.png"
    },
    {
      "uri": "textures/BC-303_emissive.png"
    },
    {
      "uri": "textures/BC-303_normal.png"
    },
    {
      "uri": "textures/BC-303_specularf0.png"
    },
    {
      "uri": "textures/Credits_dolynick_NepsterCZ_baseColor.png"
    }
  ],
  "materials": [
    {
      "doubleSided": true,
      "emissiveFactor": [
        1.0,
        1.0,
        1.0
      ],
      "emissiveTexture": {
        "index": 2
      },
      "extensions": {
        "KHR_materials_specular": {
          "specularColorFactor": [
            1.0,
            1.0,
            1.0
          ],
          "specularFactor": 1.0,
          "specularTexture": {
            "index": 4
          }
        }
      },
      "name": "BC-303",
      "normalTexture": {
        "index": 3
      },
      "occlusionTexture": {
        "index": 1
      },
      "pbrMetallicRoughness": {
        "baseColorTexture": {
          "index": 0
        },
        "metallicRoughnessTexture": {
          "index": 1
        }
      }
    },
    {
      "doubleSided": true,
      "extensions": {
        "KHR_materials_specular": {
          "specularColorFactor": [
            1.0,
            1.0,
            1.0
          ],
          "specularFactor": 0.0
        }
      },
      "name": "Credits_dolynick_NepsterCZ",
      "pbrMetallicRoughness": {
        "baseColorTexture": {
          "index": 5
        },
        "metallicFactor": 0.0,
        "roughnessFactor": 0.0
      }
    }
  ],
  "meshes": [
    {
      "name": "Object_0",
      "primitives": [
        {
          "attributes": {
            "NORMAL": 1,
            "POSITION": 0,
            "TANGENT": 2,
            "TEXCOORD_0": 3
          },
          "indices": 4,
          "material": 0,
          "mode": 4
        }
      ]
    },
    {
      "name": "Object_1",
      "primitives": [
        {
          "attributes": {
            "POSITION": 5,
            "TEXCOORD_0": 6
          },
          "indices": 7,
          "material": 0,
          "mode": 1
        }
      ]
    },
    {
      "name": "Object_2",
      "primitives": [
        {
          "attributes": {
            "NORMAL": 9,
            "POSITION": 8,
            "TANGENT": 10,
            "TEXCOORD_0": 11
          },
          "indices": 12,
          "material": 0,
          "mode": 4
        }
      ]
    },
    {
      "name": "Object_3",
      "primitives": [
        {
          "attributes": {
            "NORMAL": 14,
            "POSITION": 13,
            "TANGENT": 15,
            "TEXCOORD_0": 16
          },
          "indices": 17,
          "material": 0,
          "mode": 4
        }
      ]
    },
    {
      "name": "Object_4",
      "primitives": [
        {
          "attributes": {
            "NORMAL": 19,
            "POSITION": 18,
            "TEXCOORD_0": 20
          },
          "indices": 21,
          "material": 1,
          "mode": 4
        }
      ]
    }
  ],
  "nodes": [
    {
      "children": [
        1
      ],
      "matrix": [
        1.0,
        0.0,
        0.0,
        0.0,
        0.0,
        2.220446049250313e-16,
        -1.0,
        0.0,
        0.0,
        1.0,
        2.220446049250313e-16,
        0.0,
        0.0,
        0.0,
        0.0,
        1.0
      ],
      "name": "Sketchfab_model"
    },
    {
      "children": [
        2,
        3,
        4,
        5,
        6
      ],
      "name": "BC-303.obj.cleaner.materialmerger.gles"
    },
    {
      "mesh": 0,
      "name": "Object_2"
    },
    {
      "mesh": 1,
      "name": "Object_3"
    },
    {
      "mesh": 2,
      "name": "Object_4"
    },
    {
      "mesh": 3,
      "name": "Object_5"
    },
    {
      "mesh": 4,
      "name": "Object_6"
    }
  ],
  "samplers": [
    {
      "magFilter": 9729,
      "minFilter": 9987,
      "wrapS": 10497,
      "wrapT": 10497
    }
  ],
  "scene": 0,
  "scenes": [
    {
      "name": "Sketchfab_Scene",
      "nodes": [
        0
      ]
    }
  ],
  "textures": [
    {
      "sampler": 0,
      "source": 0
    },
    {
      "sampler": 0,
      "source": 1
    },
    {
      "sampler": 0,
      "source": 2
    },
    {
      "sampler": 0,
      "source": 3
    },
    {
      "sampler": 0,
      "source": 4
    },
    {
      "sampler": 0,
      "source": 5
    }
  ]
}
