{
	"asset":{
		"generator":"Khronos glTF Blender I/O v4.0.44",
		"version":"2.0"
	},
	"scene":0,
	"scenes":[
		{
			"name":"Scene",
			"nodes":[
				2
			]
		}
	],
	"nodes":[
		{
			"mesh":0,
			"name":"Object_2"
		},
		{
			"children":[
				0
			],
			"name":"Io.obj.cleaner"
		},
		{
			"children":[
				1
			],
			"name":"Sketchfab_model",
			"rotation":[
				-0.70710688829422,
				0,
				0,
				0.7071066498756409
			]
		}
	],
	"materials":[
		{
			"doubleSided":true,
			"name":"moon",
			"pbrMetallicRoughness":{
				"baseColorTexture":{
					"index":0
				},
				"metallicFactor":0,
				"roughnessFactor":0.6000000238418579
			}
		}
	],
	"meshes":[
		{
			"name":"Object_0",
			"primitives":[
				{
					"attributes":{
						"POSITION":0,
						"NORMAL":1,
						"TEXCOORD_0":2
					},
					"indices":3,
					"material":0
				}
			]
		}
	],
	"textures":[
		{
			"sampler":0,
			"source":0
		}
	],
	"images":[
		{
			"mimeType":"image/jpeg",
			"name":"moon_baseColor",
			"uri":"textures/moon_baseColor.jpg"
		}
	],
	"accessors":[
		{
			"bufferView":0,
			"componentType":5126,
			"count":16422,
			"max":[
				1.0002753734588623,
				0.995007336139679,
				1.0012812614440918
			],
			"min":[
				-0.9997267127037048,
				-1.0049936771392822,
				-0.998718798160553
			],
			"type":"VEC3"
		},
		{
			"bufferView":1,
			"componentType":5126,
			"count":16422,
			"type":"VEC3"
		},
		{
			"bufferView":2,
			"componentType":5126,
			"count":16422,
			"type":"VEC2"
		},
		{
			"bufferView":3,
			"componentType":5123,
			"count":97536,
			"type":"SCALAR"
		}
	],
	"bufferViews":[
		{
			"buffer":0,
			"byteLength":197064,
			"byteOffset":0,
			"target":34962
		},
		{
			"buffer":0,
			"byteLength":197064,
			"byteOffset":197064,
			"target":34962
		},
		{
			"buffer":0,
			"byteLength":131376,
			"byteOffset":394128,
			"target":34962
		},
		{
			"buffer":0,
			"byteLength":195072,
			"byteOffset":525504,
			"target":34963
		}
	],
	"samplers":[
		{
			"magFilter":9729,
			"minFilter":9987
		}
	],
	"buffers":[
		{
			"byteLength":720576,
			"uri":"scene.bin"
		}
	]
}
