{
	"asset":{
		"generator":"Khronos glTF Blender I/O v4.0.44",
		"version":"2.0"
	},
	"extensionsUsed":[
		"KHR_materials_specular",
		"KHR_materials_ior"
	],
	"scene":0,
	"scenes":[
		{
			"name":"Scene",
			"nodes":[
				0
			]
		}
	],
	"nodes":[
		{
			"mesh":0,
			"name":"SK_Ship_SolarBattleCruiser.001"
		}
	],
	"materials":[
		{
			"doubleSided":true,
			"extensions":{
				"KHR_materials_specular":{
					"specularColorFactor":[
						2.0,
						2.0,
						2.0
					]
				},
				"KHR_materials_ior":{
					"ior":1.4500000476837158
				}
			},
			"name":"MI_Ship_SolarBattleCruiserV1.001",
			"pbrMetallicRoughness":{
				"baseColorTexture":{
					"index":0
				},
				"roughnessFactor":0.5527864098548889
			}
		}
	],
	"meshes":[
		{
			"name":"SK_Ship_SolarBattleCruiser.001",
			"primitives":[
				{
					"attributes":{
						"POSITION":0,
						"NORMAL":1,
						"TEXCOORD_0":2,
						"TEXCOORD_1":3,
						"TANGENT":4
					},
					"indices":5,
					"material":0
				}
			]
		}
	],
	"textures":[
		{
			"sampler":0,
			"source":0
		}
	],
	"images":[
		{
			"mimeType":"image/png",
			"name":"T_Ship_SolarBattleCruiser_BC.TGA",
			"uri":"textures/T_Ship_SolarBattleCruiser_BC_TGA.png"
		}
	],
	"accessors":[
		{
			"bufferView":0,
			"componentType":5126,
			"count":18892,
			"max":[
				12.93820571899414,
				3.9158518314361572,
				5.5690412521362305
			],
			"min":[
				-9.601548194885254,
				-2.315633535385132,
				-5.5690412521362305
			],
			"type":"VEC3"
		},
		{
			"bufferView":1,
			"componentType":5126,
			"count":18892,
			"type":"VEC3"
		},
		{
			"bufferView":2,
			"componentType":5126,
			"count":18892,
			"type":"VEC2"
		},
		{
			"bufferView":3,
			"componentType":5126,
			"count":18892,
			"type":"VEC2"
		},
		{
			"bufferView":4,
			"componentType":5126,
			"count":18892,
			"type":"VEC4"
		},
		{
			"bufferView":5,
			"componentType":5123,
			"count":36678,
			"type":"SCALAR"
		}
	],
	"bufferViews":[
		{
			"buffer":0,
			"byteLength":226704,
			"byteOffset":0,
			"target":34962
		},
		{
			"buffer":0,
			"byteLength":226704,
			"byteOffset":226704,
			"target":34962
		},
		{
			"buffer":0,
			"byteLength":151136,
			"byteOffset":453408,
			"target":34962
		},
		{
			"buffer":0,
			"byteLength":151136,
			"byteOffset":604544,
			"target":34962
		},
		{
			"buffer":0,
			"byteLength":302272,
			"byteOffset":755680,
			"target":34962
		},
		{
			"buffer":0,
			"byteLength":73356,
			"byteOffset":1057952,
			"target":34963
		}
	],
	"samplers":[
		{
			"magFilter":9729,
			"minFilter":9987
		}
	],
	"buffers":[
		{
			"byteLength":1131308,
			"uri":"scene.bin"
		}
	]
}
